<svg width="55" height="50" viewBox="0 0 55 50" fill="none" xmlns="http://www.w3.org/2000/svg">
<path d="M32.7923 24.5C32.7923 32.3104 26.2106 38.6636 18.0643 38.6636C9.91807 38.6636 3.33636 32.3104 3.33636 24.5C3.33636 16.6896 9.91807 10.3364 18.0643 10.3364C26.2106 10.3364 32.7923 16.6896 32.7923 24.5Z" fill="#D9D9D9" stroke="black" stroke-width="0.672729"/>
<path d="M52.6634 24.5C52.6634 32.3104 46.0817 38.6636 37.9354 38.6636C29.7892 38.6636 23.2075 32.3104 23.2075 24.5C23.2075 16.6896 29.7892 10.3364 37.9354 10.3364C46.0817 10.3364 52.6634 16.6896 52.6634 24.5Z" fill="#D9D9D9" stroke="black" stroke-width="0.672729"/>
<mask id="path-3-inside-1_274_1593" fill="white">
<path fill-rule="evenodd" clip-rule="evenodd" d="M28.0018 35.5009C31.146 32.8434 33.1306 28.9455 33.1306 24.6015C33.1306 20.2574 31.146 16.3595 28.0018 13.702C24.8577 16.3595 22.873 20.2574 22.873 24.6015C22.873 28.9455 24.8577 32.8434 28.0018 35.5009Z"/>
</mask>
<path fill-rule="evenodd" clip-rule="evenodd" d="M28.0018 35.5009C31.146 32.8434 33.1306 28.9455 33.1306 24.6015C33.1306 20.2574 31.146 16.3595 28.0018 13.702C24.8577 16.3595 22.873 20.2574 22.873 24.6015C22.873 28.9455 24.8577 32.8434 28.0018 35.5009Z" fill="#D9D9D9"/>
<path d="M28.0018 35.5009L27.5676 36.0147L28.0018 36.3818L28.4361 36.0147L28.0018 35.5009ZM28.0018 13.702L28.4361 13.1883L28.0018 12.8212L27.5676 13.1883L28.0018 13.702ZM32.4579 24.6015C32.4579 28.7343 30.5709 32.4487 27.5676 34.9871L28.4361 36.0147C31.7211 33.2382 33.8033 29.1568 33.8033 24.6015H32.4579ZM27.5676 14.2158C30.5709 16.7543 32.4579 20.4687 32.4579 24.6015H33.8033C33.8033 20.0462 31.7211 15.9648 28.4361 13.1883L27.5676 14.2158ZM23.5458 24.6015C23.5458 20.4687 25.4328 16.7543 28.4361 14.2158L27.5676 13.1883C24.2826 15.9648 22.2003 20.0462 22.2003 24.6015H23.5458ZM28.4361 34.9871C25.4328 32.4487 23.5458 28.7343 23.5458 24.6015H22.2003C22.2003 29.1568 24.2826 33.2382 27.5676 36.0147L28.4361 34.9871Z" fill="black" mask="url(#path-3-inside-1_274_1593)"/>
</svg>
