<svg width="55" height="50" viewBox="0 0 55 50" fill="none" xmlns="http://www.w3.org/2000/svg">
<path d="M32.7599 24.5C32.7599 32.2913 26.1938 38.6312 18.0643 38.6312C9.93479 38.6312 3.36877 32.2913 3.36877 24.5C3.36877 16.7087 9.93479 10.3688 18.0643 10.3688C26.1938 10.3688 32.7599 16.7087 32.7599 24.5Z" stroke="black" stroke-width="0.737533"/>
<path d="M52.631 24.5C52.631 32.2913 46.0649 38.6312 37.9354 38.6312C29.8059 38.6312 23.2399 32.2913 23.2399 24.5C23.2399 16.7087 29.8059 10.3688 37.9354 10.3688C46.0649 10.3688 52.631 16.7087 52.631 24.5Z" stroke="black" stroke-width="0.737533"/>
<mask id="path-3-outside-1_274_1598" maskUnits="userSpaceOnUse" x="23" y="14.0001" width="10" height="21" fill="black">
<rect fill="white" x="23" y="14.0001" width="10" height="21"/>
<path fill-rule="evenodd" clip-rule="evenodd" d="M27.9998 15.0001C30.4519 17.3164 31.9996 20.7139 31.9996 24.5002C31.9996 28.2864 30.4519 31.6838 27.9999 34.0001C25.5478 31.6838 24 28.2864 24 24.5001C24 20.7138 25.5478 17.3164 27.9998 15.0001Z"/>
</mask>
<path fill-rule="evenodd" clip-rule="evenodd" d="M27.9998 15.0001C30.4519 17.3164 31.9996 20.7139 31.9996 24.5002C31.9996 28.2864 30.4519 31.6838 27.9999 34.0001C25.5478 31.6838 24 28.2864 24 24.5001C24 20.7138 25.5478 17.3164 27.9998 15.0001Z" fill="#D9D9D9"/>
<path d="M27.9998 15.0001L28.2745 14.7093L27.9998 14.4499L27.7251 14.7093L27.9998 15.0001ZM27.9999 34.0001L27.7252 34.2909L27.9999 34.5504L28.2745 34.2909L27.9999 34.0001ZM27.7251 15.2909C30.0969 17.5314 31.5996 20.8235 31.5996 24.5002H32.3996C32.3996 20.6042 30.8068 17.1015 28.2745 14.7093L27.7251 15.2909ZM31.5996 24.5002C31.5996 28.1768 30.0969 31.4689 27.7252 33.7093L28.2745 34.2909C30.8069 31.8987 32.3996 28.396 32.3996 24.5002H31.5996ZM28.2745 33.7093C25.9028 31.4689 24.4 28.1768 24.4 24.5001H23.6C23.6 28.396 25.1928 31.8987 27.7252 34.2909L28.2745 33.7093ZM24.4 24.5001C24.4 20.8235 25.9027 17.5314 28.2745 15.2909L27.7251 14.7093C25.1928 17.1015 23.6 20.6042 23.6 24.5001H24.4Z" fill="#D9D9D9" mask="url(#path-3-outside-1_274_1598)"/>
</svg>
