<svg width="55" height="50" viewBox="0 0 55 50" fill="none" xmlns="http://www.w3.org/2000/svg">
<path d="M32.7599 24.5C32.7599 32.2913 26.1938 38.6312 18.0643 38.6312C9.93479 38.6312 3.36877 32.2913 3.36877 24.5C3.36877 16.7087 9.93479 10.3688 18.0643 10.3688C26.1938 10.3688 32.7599 16.7087 32.7599 24.5Z" fill="#D9D9D9" stroke="black" stroke-width="0.737533"/>
<path d="M52.631 24.5C52.631 32.2913 46.0649 38.6312 37.9354 38.6312C29.8059 38.6312 23.2399 32.2913 23.2399 24.5C23.2399 16.7087 29.8059 10.3688 37.9354 10.3688C46.0649 10.3688 52.631 16.7087 52.631 24.5Z" stroke="black" stroke-width="0.737533"/>
<mask id="path-3-inside-1_274_1606" fill="white">
<path fill-rule="evenodd" clip-rule="evenodd" d="M28.0021 35.5007C24.8578 32.8432 22.873 28.9452 22.873 24.601C22.873 20.2571 24.8576 16.3593 28.0015 13.7018C31.1458 16.3593 33.1306 20.2573 33.1306 24.6015C33.1306 28.9454 31.1461 32.8432 28.0021 35.5007Z"/>
</mask>
<path fill-rule="evenodd" clip-rule="evenodd" d="M28.0021 35.5007C24.8578 32.8432 22.873 28.9452 22.873 24.601C22.873 20.2571 24.8576 16.3593 28.0015 13.7018C31.1458 16.3593 33.1306 20.2573 33.1306 24.6015C33.1306 28.9454 31.1461 32.8432 28.0021 35.5007Z" fill="#D9D9D9"/>
<path d="M28.0021 35.5006L27.526 36.0639L28.0021 36.4663L28.4782 36.0639L28.0021 35.5006ZM28.0015 13.7017L28.4776 13.1384L28.0015 12.736L27.5254 13.1385L28.0015 13.7017ZM28.4782 34.9373C25.4883 32.4103 23.6106 28.7135 23.6106 24.6009H22.1355C22.1355 29.1767 24.2273 33.2759 27.526 36.0639L28.4782 34.9373ZM23.6106 24.6009C23.6106 20.4886 25.4881 16.792 28.4777 14.265L27.5254 13.1385C24.2271 15.9265 22.1355 20.0254 22.1355 24.6009H23.6106ZM27.5255 14.265C30.5153 16.792 32.3931 20.4888 32.3931 24.6014H33.8681C33.8681 20.0256 31.7763 15.9264 28.4776 13.1384L27.5255 14.265ZM32.3931 24.6014C32.3931 28.7138 30.5156 32.4104 27.526 34.9373L28.4782 36.0639C31.7766 33.2759 33.8681 29.1769 33.8681 24.6014H32.3931Z" fill="black" mask="url(#path-3-inside-1_274_1606)"/>
</svg>
