<svg width="533" height="69" viewBox="0 0 533 69" fill="black   " xmlns="http://www.w3.org/2000/svg">
<g clip-path="url(#clip0)">
<path d="M65.7895 21.1396C65.4661 20.8541 65.0936 20.6315 64.6908 20.4829L64.0737 33.2343L67.2042 24.4229C67.2978 23.7959 67.2146 23.1549 66.9643 22.5739C66.7139 21.9928 66.3066 21.4956 65.7895 21.1396Z" fill="white"/>
<path d="M60.627 20.3761L62.4631 33.1122L64.2541 20.3761C63.0837 19.9378 61.7974 19.9378 60.627 20.3761Z" fill="white"/>
<path d="M59.1071 21.1244C58.5913 21.4817 58.185 21.9792 57.9348 22.5598C57.6846 23.1405 57.6006 23.7809 57.6924 24.4077L60.8229 33.2191L60.2058 20.4678C59.8029 20.6164 59.4305 20.839 59.1071 21.1244Z" fill="white"/>
<path d="M52.8159 22.3306C54.8929 26.0415 57.0301 29.9662 59.107 33.5854C58.3696 30.5312 57.602 25.2932 56.5484 23.8424C56.0836 23.3151 55.5047 22.9042 54.8571 22.6419C54.2095 22.3796 53.5109 22.2731 52.8159 22.3306Z" fill="white"/>
<path d="M49.1138 24.1941L57.6474 34.2425L52.3647 22.3921C51.7211 22.4108 51.091 22.5838 50.526 22.897C49.9609 23.2102 49.477 23.6547 49.1138 24.1941Z" fill="white"/>
<path d="M66.9787 26.912L65.564 33.7992C67.3851 30.577 69.1911 27.4159 70.952 24.1937C70.0904 24.1562 69.2395 24.4 68.5244 24.8892C67.8093 25.3784 67.2676 26.0874 66.9787 26.912Z" fill="white"/>
<path d="M71.4634 24.1941L66.9482 34.3952L74.8648 25.6143C74.4233 25.1546 73.8938 24.7915 73.3089 24.5472C72.7239 24.303 72.0959 24.1828 71.4634 24.1941Z" fill="white"/>
<path d="M47.9998 28.7445C50.7842 30.9282 53.5384 33.1578 56.3378 35.3263L48.8125 24.5449C48.1526 25.8375 47.8706 27.2946 47.9998 28.7445Z" fill="white"/>
<path d="M75.8434 26.8817C75.6827 26.5315 75.458 26.2154 75.1812 25.9502L68.3633 35.4488C71.0724 33.4025 73.6912 31.3103 76.2949 29.2182C76.35 28.4126 76.1942 27.6066 75.8434 26.8817Z" fill="white"/>
<path d="M48 33.1273L55.2694 36.5328C52.8613 34.0894 50.4231 31.7224 48 29.3096V33.1273Z" fill="white"/>
<path d="M76.2947 33.3871V29.9053L69.4316 36.6704C71.7645 35.5861 73.9167 34.5171 76.2947 33.3871Z" fill="white"/>
<path d="M48 36.5178C50.1823 37.0065 52.5152 37.6326 54.547 38.0449L48 33.6621V36.5178Z" fill="white"/>
<path d="M76.2947 36.7164V34.0439C74.2328 35.3725 72.1106 36.7469 70.1992 38.1366L76.2947 36.7164Z" fill="white"/>
<path d="M48.0146 39.8467H54.4111L48.0146 37.0674V39.8467Z" fill="white"/>
<path d="M76.2947 39.8465V37.3115C74.1877 38.2278 72.3665 38.9913 70.3799 39.8465H76.2947Z" fill="white"/>
<path d="M74.0822 20.8187C74.1101 20.4374 74.0602 20.0544 73.9356 19.6936C73.8109 19.3328 73.6143 19.0019 73.3579 18.7217C73.1015 18.4415 72.7909 18.2181 72.4455 18.0652C72.1001 17.9124 71.7273 17.8335 71.3505 17.8335C70.9737 17.8335 70.6009 17.9124 70.2556 18.0652C69.9102 18.2181 69.5996 18.4415 69.3432 18.7217C69.0868 19.0019 68.8901 19.3328 68.7655 19.6936C68.6409 20.0544 68.5909 20.4374 68.6189 20.8187C68.5737 24.3769 74.2176 24.5754 74.0822 20.8187Z" fill="white"/>
<path d="M55.8109 18.8033C55.9915 14.8939 50.0315 15.0466 50.2572 18.8033C50.0465 22.6821 56.1721 22.7432 55.8109 18.8033Z" fill="white"/>
<path d="M62.4633 19.5515C62.8788 19.5728 63.2941 19.5065 63.6831 19.3568C64.072 19.207 64.4262 18.9771 64.7232 18.6815C65.0202 18.3859 65.2535 18.031 65.4086 17.6393C65.5636 17.2476 65.6369 16.8276 65.6239 16.4056C65.6749 15.9643 65.6303 15.5169 65.4932 15.0948C65.3562 14.6727 65.1301 14.286 64.8305 13.9617C64.531 13.6375 64.1654 13.3834 63.7591 13.2174C63.3528 13.0513 62.9158 12.9772 62.4784 13.0002C62.042 12.9814 61.6068 13.0592 61.2031 13.2282C60.7993 13.3972 60.4366 13.6533 60.1402 13.9788C59.8438 14.3043 59.6207 14.6913 59.4865 15.113C59.3523 15.5347 59.3101 15.981 59.3629 16.4209C59.3386 16.8398 59.4023 17.2591 59.5497 17.6511C59.6972 18.0431 59.925 18.3989 60.2181 18.6949C60.5112 18.9908 60.8629 19.2202 61.25 19.3679C61.6371 19.5156 62.0506 19.5782 62.4633 19.5515Z" fill="white"/>
<path d="M112.13 24.4077H109.526V39.6941H112.13V24.4077Z" fill="white"/>
<path d="M100.3 24.4077L95.8904 37.434L91.6462 31.8753L97.3804 24.423H94.3703L89.0424 31.6768V24.4077H86.3936V39.6788H88.9973V32.1654L94.5058 39.7094H97.6664L99.0661 35.296H104.59L106.095 39.6941H108.819L103.626 24.423L100.3 24.4077ZM99.6982 33.1581L101.7 26.8205L103.777 33.1581H99.6982Z" fill="white"/>
<path d="M196.518 35.4793L193.915 24.4077H189.399V39.6788H191.958V26.6526L195.269 39.6788H197.873L201.109 26.7442V39.7552H203.637V24.4841H199.122L196.518 35.4793Z" fill="white"/>
<path d="M210.184 24.3926L204.977 39.6637H207.535L208.935 35.2503H214.458L215.963 39.6637H218.688L213.465 24.3926H210.184ZM209.582 33.1429L211.584 26.7443L213.676 33.0666L209.582 33.1429Z" fill="white"/>
<path d="M229.163 36.1971L223.142 24.3926H219.711V39.6637H222.164V28.1645L228.064 39.6789H231.616V24.4078H229.102L229.163 36.1971Z" fill="white"/>
<path d="M278.438 37.4341H272.252V33.1429H276.768V30.9286H272.252V26.6069H277.911V24.3926H269.694V39.6637H278.453L278.438 37.4341Z" fill="white"/>
<path d="M254.749 24.3926H254.282V36.3193L248.262 24.3926H244.86V37.4341H236.959V33.1429H241.474V30.9286H236.959V26.6069H242.618V24.3926H234.385V39.6637H247.329V28.0424L253.228 39.6789H256.78V26.7443H261.296V39.7248H263.914V26.7443H268.43V24.3926H254.749Z" fill="white"/>
<path d="M185.591 31.9975C186.061 31.5993 186.439 31.1018 186.698 30.54C186.958 29.9781 187.094 29.3654 187.097 28.7448C187.11 28.1342 186.992 27.528 186.75 26.9687C186.508 26.4094 186.149 25.9106 185.697 25.5073C184.427 24.6023 182.873 24.2052 181.332 24.3925H176.968V30.8522V37.434H168.931V33.1428H173.446V30.9285H168.931V26.6068H174.59V24.3925H166.357V39.6636H179.496V33.1886H180.79C181.979 35.0975 184.523 39.7094 184.523 39.7094H187.623L183.575 32.9748C184.319 32.8309 185.013 32.4942 185.591 31.9975ZM179.571 30.9591V26.6373H181.769C183.74 26.6373 184.538 27.4314 184.538 28.76C184.538 30.0886 183.755 30.9438 181.769 30.9438L179.571 30.9591Z" fill="white"/>
<path d="M144.549 31.9976C145.018 31.5994 145.396 31.1019 145.656 30.5401C145.916 29.9782 146.052 29.3655 146.054 28.7449C146.068 28.1343 145.949 27.5281 145.708 26.9688C145.466 26.4095 145.106 25.9107 144.654 25.5074C143.385 24.601 141.83 24.2039 140.29 24.3926H135.925V30.8523V37.4341H127.888V33.1429H132.403V30.9286H127.888V26.6069H133.547V24.3926H125.299V39.6637H138.453V33.1887H139.808C140.997 35.0976 143.541 39.7095 143.541 39.7095H146.581L142.532 32.9749C143.276 32.831 143.971 32.4943 144.549 31.9976ZM138.529 30.9592V26.6374H140.726C142.698 26.6374 143.495 27.4315 143.495 28.7601C143.495 30.0887 142.713 30.9439 140.726 30.9439L138.529 30.9592Z" fill="white"/>
<path d="M163.347 25.553C162.081 24.6373 160.527 24.2293 158.982 24.4077H154.618V33.4176V39.7093H157.236V33.4024H158.997C160.543 33.5727 162.096 33.1476 163.347 32.2112C163.801 31.789 164.162 31.2741 164.405 30.7003C164.649 30.1265 164.771 29.5069 164.762 28.8821C164.773 28.2571 164.652 27.6368 164.408 27.0628C164.164 26.4887 163.802 25.974 163.347 25.553ZM159.374 31.1728H157.221V26.5915H159.374C161.33 26.5915 162.143 27.4772 162.143 28.821C162.143 30.1649 161.285 31.1728 159.374 31.1728Z" fill="white"/>
<path d="M119.731 30.7756C117.684 30.012 116.72 29.4317 116.72 28.2253C116.72 27.3091 117.639 26.2554 119.445 26.2554C120.573 26.2693 121.684 26.5407 122.696 27.0495V24.8657C121.688 24.4022 120.596 24.1577 119.49 24.1479C116.269 24.1479 114.042 25.9958 114.042 28.4849C114.042 30.6992 115.712 32.0278 118.241 32.9136C120.197 33.616 121.04 34.3185 121.04 35.5096C121.04 36.7008 119.956 37.7087 118.165 37.7087C116.724 37.7023 115.309 37.3183 114.057 36.5939V38.9609C115.282 39.5574 116.625 39.8654 117.985 39.8619C121.883 39.8619 123.719 37.7392 123.719 35.2806C123.719 32.8219 122.364 31.7682 119.731 30.7756Z" fill="white"/>
<path d="M280.831 36.9908C280.843 36.4953 280.999 36.0142 281.279 35.608C281.559 35.2017 281.951 34.8883 282.405 34.7069C282.86 34.5255 283.357 34.4843 283.835 34.5883C284.313 34.6923 284.749 34.937 285.091 35.2917C285.432 35.6464 285.663 36.0953 285.754 36.5824C285.845 37.0694 285.792 37.5729 285.603 38.0298C285.413 38.4866 285.095 38.8766 284.688 39.1509C284.281 39.4251 283.803 39.5715 283.315 39.5716C282.983 39.5739 282.654 39.5082 282.348 39.3785C282.041 39.2488 281.764 39.0577 281.532 38.8168C281.3 38.5759 281.119 38.29 280.998 37.9763C280.878 37.6625 280.821 37.3274 280.831 36.9908ZM283.315 40.045C283.906 40.027 284.479 39.8327 284.962 39.4864C285.445 39.14 285.816 38.657 286.03 38.0975C286.244 37.5381 286.291 36.9271 286.165 36.3408C286.039 35.7545 285.745 35.2189 285.321 34.8009C284.897 34.3828 284.36 34.1009 283.779 33.9903C283.198 33.8797 282.597 33.9453 282.053 34.1789C281.508 34.4125 281.043 34.8038 280.716 35.3039C280.389 35.804 280.214 36.3907 280.214 36.9908C280.208 37.4036 280.284 37.8133 280.438 38.1954C280.593 38.5774 280.821 38.9237 281.111 39.2135C281.401 39.5032 281.746 39.7304 282.124 39.8812C282.503 40.032 282.908 40.1033 283.315 40.0909V40.045ZM282.667 37.1894H283.285L284.218 38.7165H284.82L283.811 37.1894C283.936 37.1895 284.059 37.164 284.173 37.1143C284.288 37.0647 284.391 36.9919 284.477 36.9005C284.563 36.8091 284.63 36.7009 284.673 36.5826C284.716 36.4642 284.735 36.3381 284.729 36.212C284.729 35.5095 284.323 35.2041 283.48 35.2041H282.141V38.7775H282.667V37.1894ZM282.667 36.7312V35.6317H283.39C283.766 35.6317 284.157 35.7081 284.157 36.1509C284.157 36.5938 283.751 36.7312 283.3 36.7312H282.667Z" fill="white"/>
</g>
<defs>
<clipPath id="clip0">
<rect width="238.4" height="27.0909" fill="white" transform="translate(48 13)"/>
</clipPath>
</defs>
</svg>
